<svg xmlns="http://www.w3.org/2000/svg" viewBox="0 0 1060 520" role="img">
<style>text{font-family:'Inter',system-ui,Arial,sans-serif;fill:#1e293b}.dim{fill:#94a3b8}.grid{stroke:#e2e8f0;stroke-width:1}.axis{stroke:#cbd5e1;stroke-width:1.5}.val{font-size:11px;font-weight:600;fill:#475569}.lbl{font-size:12px;fill:#64748b}.title{font-size:17px;font-weight:700;fill:#0f172a}.ylbl{font-size:11px;fill:#94a3b8}.leg-text{font-size:12px;fill:#334155}</style>
<rect width="1060" height="520" fill="#f8fafc" rx="10"/>
<rect x="1" y="1" width="1058" height="518" fill="none" stroke="#e2e8f0" stroke-width="1" rx="10"/>
<text class="title" x="68" y="22">Interest Score: Labeled vs Blind vs Single-Agent</text>
<rect x="68" y="32" width="12" height="12" rx="3" fill="#176c72"/>
<text class="leg-text" x="85" y="43">Labeled multi-agent</text>
<rect x="186" y="32" width="12" height="12" rx="3" fill="#7c3aed"/>
<text class="leg-text" x="203" y="43">Blind multi-agent</text>
<rect x="304" y="32" width="12" height="12" rx="3" fill="#c74732"/>
<text class="leg-text" x="321" y="43">Single mock</text>
<line class="grid" x1="68" y1="432.0" x2="1036" y2="432.0"/>
<text class="ylbl" x="62" y="436.0" text-anchor="end">0.0</text>
<line class="grid" x1="68" y1="340.0" x2="1036" y2="340.0"/>
<text class="ylbl" x="62" y="344.0" text-anchor="end">0.2</text>
<line class="grid" x1="68" y1="248.0" x2="1036" y2="248.0"/>
<text class="ylbl" x="62" y="252.0" text-anchor="end">0.5</text>
<line class="grid" x1="68" y1="156.0" x2="1036" y2="156.0"/>
<text class="ylbl" x="62" y="160.0" text-anchor="end">0.8</text>
<line class="grid" x1="68" y1="64.0" x2="1036" y2="64.0"/>
<text class="ylbl" x="62" y="68.0" text-anchor="end">1.0</text>
<line class="axis" x1="68" y1="432" x2="1036" y2="432"/>
<rect x="95.6" y="174.4" width="41.2" height="257.6" rx="4" fill="#176c72" opacity="0.92"/>
<text class="val" x="116.2" y="169.4" text-anchor="middle">0.70</text>
<rect x="144.2" y="174.4" width="41.2" height="257.6" rx="4" fill="#7c3aed" opacity="0.92"/>
<text class="val" x="164.8" y="169.4" text-anchor="middle">0.70</text>
<rect x="192.8" y="163.4" width="41.2" height="268.6" rx="4" fill="#c74732" opacity="0.92"/>
<text class="val" x="213.4" y="158.4" text-anchor="middle">0.73</text>
<text class="lbl" x="164.8" y="450.0" text-anchor="middle">FRB 20121102A</text>
<rect x="289.2" y="119.2" width="41.2" height="312.8" rx="4" fill="#176c72" opacity="0.92"/>
<text class="val" x="309.8" y="114.2" text-anchor="middle">0.85</text>
<rect x="337.8" y="119.2" width="41.2" height="312.8" rx="4" fill="#7c3aed" opacity="0.92"/>
<text class="val" x="358.4" y="114.2" text-anchor="middle">0.85</text>
<rect x="386.4" y="156.0" width="41.2" height="276.0" rx="4" fill="#c74732" opacity="0.92"/>
<text class="val" x="407.0" y="151.0" text-anchor="middle">0.75</text>
<text class="lbl" x="358.4" y="450.0" text-anchor="middle">Maisie's Galaxy</text>
<rect x="482.8" y="174.4" width="41.2" height="257.6" rx="4" fill="#176c72" opacity="0.92"/>
<text class="val" x="503.4" y="169.4" text-anchor="middle">0.70</text>
<rect x="531.4" y="192.8" width="41.2" height="239.2" rx="4" fill="#7c3aed" opacity="0.92"/>
<text class="val" x="552.0" y="187.8" text-anchor="middle">0.65</text>
<rect x="580.0" y="170.7" width="41.2" height="261.3" rx="4" fill="#c74732" opacity="0.92"/>
<text class="val" x="600.6" y="165.7" text-anchor="middle">0.71</text>
<text class="lbl" x="552.0" y="450.0" text-anchor="middle">JADES 9186</text>
<rect x="676.4" y="395.2" width="41.2" height="36.8" rx="4" fill="#176c72" opacity="0.92"/>
<text class="val" x="697.0" y="390.2" text-anchor="middle">0.10</text>
<rect x="725.0" y="321.6" width="41.2" height="110.4" rx="4" fill="#7c3aed" opacity="0.92"/>
<text class="val" x="745.6" y="316.6" text-anchor="middle">0.30</text>
<rect x="773.6" y="340.0" width="41.2" height="92.0" rx="4" fill="#c74732" opacity="0.92"/>
<text class="val" x="794.2" y="335.0" text-anchor="middle">0.25</text>
<text class="lbl" x="745.6" y="450.0" text-anchor="middle">SN 2020jfo</text>
<rect x="870.0" y="395.2" width="41.2" height="36.8" rx="4" fill="#176c72" opacity="0.92"/>
<text class="val" x="890.6" y="390.2" text-anchor="middle">0.10</text>
<rect x="918.6" y="211.2" width="41.2" height="220.8" rx="4" fill="#7c3aed" opacity="0.92"/>
<text class="val" x="939.2" y="206.2" text-anchor="middle">0.60</text>
<rect x="967.2" y="391.5" width="41.2" height="40.5" rx="4" fill="#c74732" opacity="0.92"/>
<text class="val" x="987.8" y="386.5" text-anchor="middle">0.11</text>
<text class="lbl" x="939.2" y="450.0" text-anchor="middle">JWST NIRCam 'wisp'</text>
<text class="ylbl" transform="translate(13,248.0) rotate(-90)" text-anchor="middle">Labeled = named run, Blind = anonymised run, Single = mock baseline. Shows bias from known object names.</text>
</svg>